<svg width="81" height="24" viewBox="0 0 81 24" fill="none" xmlns="http://www.w3.org/2000/svg">
<path d="M64.7265 6.93648C64.9533 6.93622 65.18 6.93583 65.4068 6.93534C65.8789 6.93476 66.3509 6.93559 66.8231 6.93745C67.4229 6.9397 68.0226 6.9384 68.6224 6.93604C69.0897 6.9346 69.557 6.93507 70.0243 6.93609C70.2452 6.93635 70.4662 6.93604 70.6871 6.93511C72.5153 6.92908 74.5016 6.94907 75.9699 8.17584C77.3094 9.68634 77.1987 11.6248 77.1984 13.518C77.1987 13.8108 77.2012 14.1035 77.2037 14.3963C77.2188 18.0856 77.2188 18.0856 76.0373 19.4907C74.9517 20.5226 73.3854 20.7224 71.9427 20.7246C71.8369 20.7252 71.7311 20.7259 71.6221 20.7265C71.2737 20.7285 70.9254 20.7294 70.5771 20.7301C70.4573 20.7305 70.3376 20.7308 70.2142 20.7312C69.5802 20.7332 68.9461 20.7344 68.3121 20.735C67.6609 20.7357 67.0098 20.7389 66.3587 20.7426C65.8547 20.7451 65.3507 20.7458 64.8467 20.746C64.6069 20.7464 64.3671 20.7474 64.1272 20.7492C60.3553 20.7746 60.3553 20.7746 59.0218 19.5737C58.2245 18.7146 57.9031 17.7521 57.89 16.5934C57.8883 16.4609 57.8865 16.3283 57.8848 16.1918C57.8838 16.0497 57.8828 15.9077 57.8818 15.7613C57.8807 15.6135 57.8796 15.4657 57.8785 15.3134C57.8767 15.0006 57.8752 14.6878 57.8742 14.375C57.8726 14.0568 57.8699 13.7386 57.8659 13.4205C57.8602 12.959 57.8581 12.4976 57.8567 12.0361C57.8544 11.8956 57.852 11.7552 57.8496 11.6105C57.8535 10.2766 58.172 9.10541 59.1315 8.12948C60.6247 6.84852 62.8597 6.9286 64.7265 6.93648ZM61.993 10.7473C61.6324 11.3399 61.6333 11.8745 61.6268 12.546C61.6257 12.6516 61.6246 12.7571 61.6235 12.8659C61.6217 13.0893 61.6202 13.3128 61.6192 13.5363C61.6176 13.7639 61.6149 13.9916 61.6109 14.2192C61.6052 14.5489 61.6031 14.8784 61.6017 15.2081C61.5994 15.3088 61.597 15.4096 61.5946 15.5133C61.5976 16.2473 61.7364 16.6866 62.1937 17.2747C63.0553 17.848 64.0859 17.7278 65.0902 17.7229C65.2815 17.7232 65.4728 17.7235 65.6642 17.724C66.064 17.7246 66.4637 17.7238 66.8635 17.7219C67.3739 17.7197 67.8843 17.721 68.3947 17.7233C68.7894 17.7248 69.1841 17.7243 69.5789 17.7233C69.767 17.723 69.9551 17.7233 70.1432 17.7243C71.5119 17.7487 71.5119 17.7487 72.7599 17.2747C73.5553 16.3254 73.4574 15.3208 73.4608 14.1422C73.4621 13.8731 73.4662 13.604 73.4705 13.3349C73.4748 12.2588 73.4603 11.3924 72.7933 10.5C71.9051 9.86752 70.7973 9.98158 69.7516 9.98233C69.5776 9.98176 69.4037 9.9812 69.2245 9.98062C68.8573 9.97964 68.4902 9.97967 68.123 9.98037C67.6555 9.98113 67.188 9.9789 66.7205 9.97584C66.2708 9.97341 65.821 9.97392 65.3713 9.97409C65.2049 9.97287 65.0385 9.97166 64.8671 9.97041C63.2945 9.97754 63.2945 9.97754 61.993 10.7473Z" fill="url(#paint0_linear_370_8214)"/>
<path d="M10.1562 6.9365C10.3829 6.93623 10.6097 6.93585 10.8364 6.93535C11.3085 6.93477 11.7806 6.9356 12.2527 6.93747C12.8525 6.93972 13.4523 6.93842 14.0521 6.93605C14.5194 6.93461 14.9866 6.93508 15.4539 6.9361C15.6749 6.93636 15.8958 6.93606 16.1168 6.93512C19.9783 6.92239 19.9783 6.92239 21.3855 8.12949C22.4638 9.22622 22.6857 10.5363 22.6697 12.0129C22.6699 12.1599 22.6701 12.307 22.6703 12.4584C22.67 12.7671 22.6685 13.0757 22.6657 13.3843C22.6618 13.8537 22.663 14.3228 22.6647 14.7922C22.6639 15.0938 22.6627 15.3954 22.6613 15.697C22.6617 15.8356 22.6621 15.9742 22.6625 16.1171C22.6449 17.4876 22.3745 18.6329 21.3996 19.6484C20.2931 20.5453 18.8985 20.7225 17.5082 20.7246C17.4026 20.7252 17.297 20.7259 17.1882 20.7266C16.8405 20.7285 16.4929 20.7294 16.1452 20.7301C15.9658 20.7307 15.9658 20.7307 15.7828 20.7312C15.1495 20.7332 14.5162 20.7344 13.8828 20.735C13.2329 20.7357 12.583 20.7389 11.9331 20.7426C11.4296 20.7451 10.9262 20.7458 10.4228 20.746C10.1835 20.7464 9.94412 20.7474 9.70478 20.7492C7.64881 20.7631 5.80747 20.692 4.23777 19.2281C3.29565 17.6799 3.31834 16.0064 3.31853 14.2598C3.31824 13.9563 3.31581 13.6528 3.31327 13.3494C3.29898 9.70059 3.29898 9.70059 4.44675 8.34893C6.12715 6.95575 8.05494 6.92763 10.1562 6.9365ZM7.5648 10.6319C6.94872 11.5552 7.04747 12.7857 7.05488 13.8462C7.05384 13.9944 7.05281 14.1426 7.05174 14.2954C7.03508 15.8085 7.03508 15.8085 7.66511 17.1346C8.28086 17.6005 8.78046 17.7035 9.55031 17.7087C9.72086 17.7104 9.89141 17.712 10.0671 17.7138C10.2523 17.7142 10.4376 17.7145 10.6228 17.7147C10.8142 17.7155 11.0056 17.7164 11.197 17.7173C11.5978 17.7189 11.9985 17.7194 12.3994 17.7192C12.9107 17.7192 13.4219 17.7228 13.9333 17.7273C14.3286 17.7303 14.7239 17.7308 15.1192 17.7307C15.3076 17.731 15.4959 17.7321 15.6843 17.7342C16.7473 17.7447 17.56 17.7384 18.4571 17.1429C19.1217 16.1705 19.0165 14.9975 19.0171 13.8709C19.0188 13.7209 19.0204 13.5709 19.0221 13.4163C19.0401 11.9045 19.0401 11.9045 18.4403 10.5577C17.488 9.88411 16.3213 9.98152 15.1974 9.98234C15.0266 9.98178 14.8559 9.98121 14.6799 9.98063C14.3198 9.97988 13.9598 9.97968 13.5997 9.98038C13.1413 9.98114 12.683 9.97891 12.2247 9.97585C11.7833 9.97343 11.342 9.97393 10.9007 9.9741C10.7377 9.97289 10.5746 9.97167 10.4066 9.97042C9.36849 9.97594 8.44588 10.0528 7.5648 10.6319Z" fill="url(#paint1_linear_370_8214)"/>
<path d="M31.1668 6.96996C31.2839 6.96951 31.401 6.96907 31.5217 6.96862C31.9061 6.96737 32.2905 6.96711 32.675 6.96696C32.9429 6.96654 33.2108 6.9661 33.4787 6.96563C34.0387 6.96485 34.5987 6.9646 35.1587 6.96468C35.8775 6.96469 36.5964 6.96288 37.3153 6.96062C37.8678 6.95916 38.4202 6.95889 38.9727 6.95896C39.2379 6.9588 39.5031 6.95821 39.7683 6.9572C40.1378 6.95591 40.5072 6.95628 40.8767 6.95708C40.9869 6.95634 41.097 6.9556 41.2104 6.95483C41.9667 6.959 41.9667 6.959 42.2647 7.25285C42.3247 7.6898 42.3081 8.13104 42.3065 8.57153C42.3087 8.69392 42.3108 8.81631 42.3131 8.94241C42.3132 9.05936 42.3132 9.17631 42.3133 9.29681C42.3137 9.40424 42.3141 9.51167 42.3145 9.62235C42.2981 9.71075 42.2817 9.79914 42.2647 9.89021C41.7653 10.2185 41.3775 10.1916 40.7993 10.1897C40.691 10.1904 40.5826 10.1911 40.471 10.1918C40.2356 10.1932 40.0003 10.1939 39.7649 10.1942C39.3922 10.1946 39.0194 10.1969 38.6467 10.1995C37.5868 10.2068 36.527 10.2109 35.4671 10.2141C34.8188 10.2162 34.1705 10.2202 33.5223 10.2253C33.2754 10.2268 33.0286 10.2276 32.7817 10.2276C32.436 10.2277 32.0903 10.2301 31.7446 10.233C31.643 10.2324 31.5415 10.2318 31.4369 10.2312C30.8027 10.2396 30.3604 10.3413 29.826 10.6814C29.4475 11.3259 29.3649 11.9116 29.3714 12.643C29.3711 12.739 29.3707 12.835 29.3703 12.9339C29.37 13.1356 29.3707 13.3373 29.3724 13.539C29.3746 13.8455 29.3724 14.1517 29.3699 14.4582C29.3701 14.6553 29.3707 14.8524 29.3714 15.0496C29.3706 15.14 29.3698 15.2304 29.369 15.3235C29.3786 15.986 29.5217 16.4322 29.826 17.0111C30.5633 17.6005 31.4731 17.5586 32.3828 17.5656C32.4886 17.5669 32.5944 17.5683 32.7034 17.5696C33.0508 17.5737 33.3981 17.577 33.7455 17.5803C33.9872 17.583 34.229 17.5858 34.4707 17.5886C35.1053 17.5959 35.7399 17.6024 36.3745 17.6087C37.0227 17.6154 37.6709 17.6227 38.3191 17.63C39.5897 17.6442 40.8604 17.6575 42.131 17.6704C42.2864 17.9768 42.282 18.1579 42.2825 18.4987C42.2827 18.6097 42.2829 18.7207 42.283 18.8351C42.2825 18.9512 42.282 19.0673 42.2815 19.1869C42.282 19.303 42.2825 19.4191 42.283 19.5387C42.2829 19.6497 42.2827 19.7607 42.2825 19.8751C42.2824 19.977 42.2822 20.0789 42.282 20.1839C42.2647 20.4397 42.2647 20.4397 42.131 20.7034C40.5195 20.7126 38.9079 20.7196 37.2964 20.7239C36.548 20.726 35.7995 20.7287 35.0511 20.7332C34.3279 20.7376 33.6046 20.7399 32.8813 20.7409C32.6064 20.7417 32.3315 20.7431 32.0566 20.7452C27.9478 20.776 27.9478 20.776 26.3986 19.3111C25.5541 18.2777 25.4849 16.8757 25.4927 15.6054C25.4923 15.4642 25.4919 15.323 25.4915 15.1776C25.4913 14.8814 25.492 14.5852 25.4937 14.289C25.4958 13.8387 25.4937 13.3886 25.4911 12.9384C25.4914 12.6488 25.4919 12.3592 25.4927 12.0696C25.4919 11.9368 25.4911 11.8039 25.4902 11.667C25.5032 10.3594 25.7661 9.22905 26.6682 8.23465C27.8511 7.09672 29.595 6.96909 31.1668 6.96996Z" fill="url(#paint2_linear_370_8214)"/>
<path d="M47.7988 3.12969C47.9416 3.12935 48.0843 3.12901 48.2314 3.12866C48.381 3.12968 48.5307 3.1307 48.6849 3.13175C48.8345 3.13073 48.9842 3.12971 49.1384 3.12866C49.2811 3.129 49.4239 3.12934 49.571 3.12969C49.768 3.13014 49.768 3.13014 49.9691 3.13059C50.2899 3.16472 50.2899 3.16472 50.5574 3.42846C50.5878 3.78523 50.5878 3.78523 50.5835 4.23306C50.5826 4.39285 50.5818 4.55263 50.5809 4.71726C50.5787 4.88487 50.5764 5.05247 50.5741 5.22516C50.5729 5.39379 50.5717 5.56241 50.5704 5.73615C50.5673 6.15376 50.5629 6.57131 50.5574 6.9889C50.6985 6.98821 50.8396 6.98752 50.985 6.9868C51.5067 6.98442 52.0284 6.98291 52.5501 6.98165C52.7762 6.98099 53.0024 6.98009 53.2285 6.97895C53.5529 6.97736 53.8772 6.9766 54.2016 6.97602C54.3541 6.975 54.3541 6.975 54.5098 6.97396C54.7528 6.97393 54.9958 6.98072 55.2386 6.9889C55.4556 7.20279 55.3898 7.43992 55.3902 7.73478C55.3903 7.8587 55.3905 7.98262 55.3907 8.11029C55.3902 8.24067 55.3896 8.37105 55.3891 8.50538C55.3896 8.63576 55.3901 8.76614 55.3907 8.90047C55.3905 9.02439 55.3903 9.14831 55.3902 9.27598C55.39 9.39047 55.3898 9.50496 55.3897 9.62291C55.3724 9.89 55.3724 9.89 55.2386 10.0219C54.8917 10.0335 54.5484 10.0371 54.2016 10.0347C54.0978 10.0346 53.9941 10.0344 53.8873 10.0342C53.5547 10.0334 53.2222 10.0318 52.8897 10.0301C52.6647 10.0294 52.4398 10.0288 52.2149 10.0283C51.6624 10.0268 51.1099 10.0246 50.5574 10.0219C50.5664 10.9276 50.5784 11.8334 50.5925 12.7391C50.5969 13.0471 50.6007 13.355 50.6037 13.663C50.6082 14.1063 50.6152 14.5495 50.6227 14.9927C50.624 15.1986 50.624 15.1986 50.6253 15.4086C50.6397 16.1144 50.6523 16.6852 51.0924 17.2746C51.5845 17.5609 52.048 17.5756 52.6117 17.5883C52.7719 17.5928 52.932 17.5973 53.0971 17.602C53.2631 17.6055 53.4291 17.6089 53.6002 17.6125C53.9311 17.6204 54.262 17.6288 54.5929 17.6378C54.7392 17.6409 54.8855 17.6441 55.0363 17.6473C55.3724 17.6702 55.3724 17.6702 55.5061 17.8021C55.5178 18.0177 55.5204 18.2337 55.5192 18.4496C55.5186 18.6453 55.5186 18.6453 55.5179 18.8449C55.5162 19.0508 55.5162 19.0508 55.5145 19.2609C55.5139 19.3987 55.5133 19.5364 55.5127 19.6784C55.5111 20.02 55.5089 20.3616 55.5061 20.7032C54.7687 20.713 54.0313 20.7202 53.2938 20.7249C53.0435 20.7269 52.7931 20.7296 52.5428 20.733C49.2585 20.7771 49.2585 20.7771 48.0161 19.7801C47.1107 18.8666 46.7943 17.7931 46.7972 16.534C46.7972 16.3888 46.7972 16.2437 46.7972 16.0941C46.7979 15.9389 46.7986 15.7836 46.7993 15.6237C46.7995 15.4636 46.7997 15.3036 46.7999 15.1387C46.8006 14.6281 46.8023 14.1176 46.804 13.607C46.8047 13.2606 46.8053 12.9142 46.8059 12.5678C46.8073 11.7191 46.8096 10.8705 46.8124 10.0219C46.7321 10.0226 46.6517 10.0232 46.569 10.024C46.2071 10.0267 45.8452 10.0284 45.4832 10.0301C45.3568 10.0312 45.2303 10.0323 45.1 10.0335C44.9196 10.0341 44.9196 10.0341 44.7356 10.0347C44.5686 10.0358 44.5686 10.0358 44.3981 10.0368C44.1374 10.0219 44.1374 10.0219 44.0036 9.89C43.9904 9.68566 43.9861 9.48074 43.9859 9.27598C43.9857 9.15206 43.9855 9.02814 43.9854 8.90047C43.9859 8.77009 43.9864 8.63971 43.9869 8.50538C43.9864 8.375 43.9859 8.24462 43.9854 8.11029C43.9855 7.98637 43.9857 7.86245 43.9859 7.73478C43.986 7.62029 43.9862 7.5058 43.9863 7.38785C44.0036 7.12076 44.0036 7.12076 44.1374 6.9889C44.3365 6.97746 44.5362 6.97478 44.7356 6.97602C44.8559 6.97644 44.9761 6.97687 45.1 6.97731C45.2265 6.97841 45.353 6.97952 45.4832 6.98065C45.6102 6.98125 45.7372 6.98184 45.868 6.98246C46.1828 6.98402 46.4976 6.98619 46.8124 6.9889C46.811 6.88242 46.8096 6.77595 46.8081 6.66624C46.8026 6.18589 46.7991 5.70554 46.7957 5.22516C46.7934 5.05755 46.7912 4.88995 46.7889 4.71726C46.788 4.55747 46.7872 4.39769 46.7863 4.23306C46.7849 4.08528 46.7835 3.93749 46.782 3.78523C46.8397 3.10768 47.2023 3.13104 47.7988 3.12969Z" fill="url(#paint3_linear_370_8214)"/>
<defs>
<linearGradient id="paint0_linear_370_8214" x1="67.5281" y1="6.93286" x2="67.5281" y2="20.7552" gradientUnits="userSpaceOnUse">
<stop stop-color="#6B5DCA"/>
<stop offset="1" stop-color="#3C50CD"/>
</linearGradient>
<linearGradient id="paint1_linear_370_8214" x1="12.9905" y1="6.93286" x2="12.9905" y2="20.7505" gradientUnits="userSpaceOnUse">
<stop stop-color="#6B5DCA"/>
<stop offset="1" stop-color="#3C50CD"/>
</linearGradient>
<linearGradient id="paint2_linear_370_8214" x1="33.9024" y1="6.95483" x2="33.9024" y2="20.7525" gradientUnits="userSpaceOnUse">
<stop stop-color="#6B5DCA"/>
<stop offset="1" stop-color="#3C50CD"/>
</linearGradient>
<linearGradient id="paint3_linear_370_8214" x1="49.7524" y1="3.12866" x2="49.7524" y2="20.747" gradientUnits="userSpaceOnUse">
<stop stop-color="#6B5DCA"/>
<stop offset="1" stop-color="#3C50CD"/>
</linearGradient>
</defs>
</svg>
